<svg width="160" height="53" viewBox="0 0 160 53" fill="none" xmlns="http://www.w3.org/2000/svg">
<path d="M56.96 14.325V39H71.485V33.75H63.82V14.325H56.96ZM93.6124 29.165C93.6124 22.935 89.1674 19.12 83.3224 19.12C77.4774 19.12 73.0324 22.935 73.0324 29.165C73.0324 35.43 77.4424 39.245 83.2874 39.245C89.1324 39.245 93.6124 35.43 93.6124 29.165ZM80.0324 29.165C80.0324 26.365 81.5724 25.07 83.3224 25.07C85.0724 25.07 86.6474 26.365 86.6474 29.165C86.6474 32 85.0374 33.295 83.2874 33.295C81.5024 33.295 80.0324 32 80.0324 29.165ZM95.2834 29.165C95.2834 35.43 99.3784 39.245 105.223 39.245C110.193 39.245 113.833 36.34 114.813 31.475H107.533C107.148 32.7 106.378 33.4 105.083 33.4C103.403 33.4 102.283 32 102.283 29.165C102.283 26.365 103.403 24.965 105.083 24.965C106.378 24.965 107.148 25.7 107.533 26.89H114.813C113.833 21.955 110.193 19.12 105.223 19.12C99.3784 19.12 95.2834 22.935 95.2834 29.165ZM137.753 19.365H130.858V29.9C130.858 32.175 129.598 33.505 127.603 33.505C125.643 33.505 124.348 32.175 124.348 29.9V19.365H117.523V30.775C117.523 35.955 120.358 39.175 124.908 39.175C127.673 39.175 129.738 37.88 130.858 36.2V39H137.753V19.365ZM158.177 33.225C158.142 25.77 147.677 28.01 147.677 25.21C147.677 24.475 148.272 24.02 149.392 24.02C150.862 24.02 151.737 24.755 151.947 25.98H158.142C157.687 22.095 154.887 19.12 149.532 19.12C144.212 19.12 141.377 21.955 141.377 25.385C141.377 32.595 151.807 30.25 151.807 33.12C151.807 33.82 151.142 34.38 149.987 34.38C148.552 34.38 147.467 33.68 147.292 32.385H140.642C140.922 36.305 144.562 39.245 150.022 39.245C155.097 39.245 158.177 36.655 158.177 33.225Z" fill="#58A9A5"></path>
<path d="M4 28V49H25" stroke="#58A9A5" stroke-width="8" stroke-linecap="round"></path>
<path d="M41 28V49H20" stroke="#58A9A5" stroke-width="8" stroke-linecap="round"></path>
<path d="M41 28L28.8588 15.4666L17 4" stroke="#58A9A5" stroke-width="8" stroke-linecap="round"></path>
<path d="M4 28L16.1412 15.4666L28 4" stroke="#58A9A5" stroke-width="8" stroke-linecap="round"></path>
</svg>
